<svg xmlns="http://www.w3.org/2000/svg" width="14" height="14" viewBox="0 0 14 14" fill="none"><path fill-rule="evenodd" clip-rule="evenodd" d="M6.95819 0C3.11379 0 0 3.10141 0 6.93052C0 9.99727 1.99178 12.5876 4.75766 13.5058C5.10557 13.5665 5.23604 13.3586 5.23604 13.1766C5.23604 13.012 5.22734 12.4663 5.22734 11.8858C3.4791 12.2064 3.02681 11.4613 2.88765 11.0715C2.80937 10.8723 2.47016 10.2572 2.17444 10.0926C1.9309 9.96262 1.58299 9.64208 2.16574 9.63342C2.7137 9.62476 3.10509 10.1359 3.23556 10.3438C3.8618 11.392 4.86204 11.0975 5.26213 10.9156C5.32302 10.4651 5.50567 10.1619 5.70572 9.98861C4.15752 9.81535 2.53974 9.21759 2.53974 6.56667C2.53974 5.81297 2.80937 5.18923 3.25296 4.70409C3.18337 4.53083 2.93984 3.82045 3.32254 2.8675C3.32254 2.8675 3.90529 2.68558 5.23604 3.57788C5.7927 3.42194 6.38414 3.34398 6.97559 3.34398C7.56704 3.34398 8.15848 3.42194 8.71514 3.57788C10.0459 2.67691 10.6286 2.8675 10.6286 2.8675C11.0113 3.82045 10.7678 4.53083 10.6982 4.70409C11.1418 5.18923 11.4114 5.80431 11.4114 6.56667C11.4114 9.22625 9.78496 9.81535 8.23676 9.98861C8.489 10.2052 8.70644 10.621 8.70644 11.2708C8.70644 12.1977 8.69774 12.9427 8.69774 13.1766C8.69774 13.3586 8.82821 13.5752 9.17612 13.5058C11.9246 12.5876 13.9164 9.98861 13.9164 6.93052C13.9164 3.10141 10.8026 0 6.95819 0Z" fill="white"></path></svg>